<?xml version="1.0" encoding="UTF-8"?>
<svg id="Capa_1" data-name="Capa 1" xmlns="http://www.w3.org/2000/svg" viewBox="0 0 451.88 146.54">
  <defs>
    <style>
      .cls-1 {
        fill: #1d1d1b;
      }
    </style>
  </defs>
  <g>
    <path class="cls-1" d="M237.88,76.65h0s0,0,0,0h0c0,.19,0,.37,0,.56,0,.19,0,.37,0,.56h0s0,0,0,0h0c.07,5.05,1.1,9.95,3.06,14.58.54,1.27,1.13,2.5,1.8,3.69.99,1.78,2.11,3.48,3.37,5.09.48.61.97,1.21,1.49,1.79.54.61,1.1,1.21,1.68,1.79,1.21,1.21,2.48,2.32,3.81,3.35,2.62,2.02,5.48,3.68,8.55,4.98,4.8,2.03,9.89,3.06,15.14,3.06s10.34-1.03,15.14-3.06c4.63-1.96,8.79-4.76,12.36-8.33,1.14-1.14,2.2-2.34,3.18-3.59-1.34-2.1-2.51-4.31-3.49-6.63-.51-1.2-.96-2.42-1.36-3.65-2.17,4.1-5.34,7.71-9.39,10.52-3.32,2.31-7.13,3.88-11.11,4.58-9.73,1.72-19.23-1.32-25.99-8.08-1.12-1.12-2.13-2.31-3.04-3.56-.8-1.1-1.51-2.25-2.14-3.44-2.09-3.94-3.25-8.33-3.36-12.89,0-.07,0-.13,0-.2h0c0-.19,0-.38,0-.56,0-.18,0-.37,0-.55h0c0-.54-.03-1.07-.05-1.59h.06v1.38c.06-2.35.4-4.66,1-6.88.56-2.09,1.35-4.1,2.37-6.01,2.18-4.13,5.39-7.76,9.49-10.58,3.33-2.29,7.15-3.85,11.14-4.53,9.69-1.66,19.12,1.38,25.85,8.11,2.1,2.1,3.84,4.46,5.19,7.01,2.2,4.15,3.36,8.81,3.36,13.64,0,5.25,1.03,10.34,3.06,15.14.53,1.26,1.13,2.49,1.79,3.68.99,1.78,2.11,3.48,3.37,5.09.98,1.25,2.04,2.45,3.18,3.59,3.57,3.57,7.73,6.38,12.36,8.33,4.8,2.03,9.89,3.06,15.14,3.06s10.34-1.03,15.14-3.06c4.63-1.96,8.79-4.76,12.36-8.33,1.14-1.14,2.2-2.34,3.18-3.59,1.26-1.61,2.38-3.31,3.37-5.09.66-1.19,1.26-2.42,1.79-3.68,2.03-4.8,3.06-9.89,3.06-15.14s-1.03-10.35-3.06-15.14c-.53-1.26-1.13-2.49-1.79-3.68-.99-1.78-2.11-3.48-3.37-5.09-.98-1.25-2.04-2.45-3.18-3.59-3.57-3.57-7.73-6.38-12.36-8.34-4.8-2.03-9.89-3.06-15.14-3.06s-10.34,1.03-15.14,3.06c-4.63,1.96-8.79,4.76-12.36,8.34-1.14,1.14-2.2,2.34-3.18,3.59,1.34,2.1,2.51,4.31,3.49,6.63.51,1.2.96,2.42,1.36,3.65,1.94-3.67,4.69-6.95,8.15-9.61,3.98-3.07,8.74-5.04,13.73-5.69,9.25-1.21,18.17,1.85,24.61,8.29,2.1,2.1,3.84,4.46,5.19,7.01,2.2,4.15,3.36,8.81,3.36,13.64s-1.16,9.48-3.36,13.64c-2.17,4.11-5.36,7.73-9.43,10.54-3.33,2.3-7.14,3.87-11.13,4.56-9.71,1.69-19.18-1.35-25.93-8.09-2.1-2.1-3.84-4.46-5.19-7.01-2.2-4.15-3.36-8.81-3.36-13.64,0-5.25-1.03-10.35-3.06-15.14-.53-1.26-1.13-2.49-1.79-3.68-.99-1.78-2.11-3.48-3.37-5.09-.98-1.25-2.04-2.45-3.18-3.59-3.57-3.57-7.73-6.38-12.36-8.34-4.8-2.03-9.89-3.06-15.14-3.06s-10.34,1.03-15.14,3.06c-4.63,1.96-8.79,4.76-12.36,8.34-1.14,1.14-2.19,2.33-3.17,3.58-1.26,1.61-2.38,3.31-3.37,5.09-.66,1.19-1.26,2.42-1.8,3.69-1.03,2.43-1.8,4.94-2.31,7.5-.36,1.81-.59,3.64-.69,5.5-.03.52-.05,1.05-.05,1.57Z"/>
    <path class="cls-1" d="M239.37,101.13c-.98,1.25-2.04,2.45-3.18,3.59-3.57,3.57-7.73,6.38-12.36,8.33-4.8,2.03-9.89,3.06-15.14,3.06s-10.34-1.03-15.14-3.06c-4.63-1.96-8.79-4.76-12.36-8.33-3.57-3.57-6.38-7.73-8.33-12.36-1.16-2.75-2-5.59-2.5-8.51-.31-1.81-.49-3.64-.55-5.5-.01-.38-.02-.76-.02-1.14v-39.47h9.71v38.68c0,.26-.01.53-.01.79s0,.53.01.79c.05,1.99.3,3.95.74,5.85,1.52,6.58,5.31,12.48,10.96,16.77,3.94,2.98,8.63,4.9,13.53,5.54,9.25,1.21,18.16-1.86,24.6-8.29,2.1-2.1,3.84-4.46,5.19-7.01.4,1.23.85,2.45,1.36,3.65.98,2.32,2.15,4.53,3.49,6.63Z"/>
    <path class="cls-1" d="M451.88,77.22c0,5.25-1.03,10.34-3.06,15.14-1.96,4.63-4.76,8.79-8.33,12.36-3.57,3.57-7.73,6.38-12.36,8.33-4.8,2.03-9.89,3.06-15.14,3.06s-10.34-1.03-15.14-3.06c-3.07-1.3-5.93-2.97-8.55-4.98-1.34-1.03-2.61-2.15-3.82-3.35-.58-.58-1.14-1.18-1.68-1.79v9.93h0v22.32h-9.71v-24.51c.75-.66,1.49-1.35,2.2-2.06.93-.93,1.81-1.9,2.65-2.89,1.22-1.46,2.35-2.98,3.37-4.58.52-.82,1.02-1.65,1.49-2.5.74-1.34,1.41-2.72,2.01-4.13.51-1.2.96-2.41,1.36-3.64.63,1.19,1.34,2.34,2.14,3.43,1.5,2.08,3.3,3.98,5.36,5.66,4.44,3.62,9.92,5.83,15.62,6.34,8.8.79,17.21-2.28,23.36-8.43,6.44-6.44,9.5-15.35,8.29-24.6-.65-4.97-2.61-9.72-5.66-13.7-6.78-8.83-17.52-13.03-28.59-11.09-3.96.69-7.76,2.25-11.07,4.53-4.08,2.81-7.27,6.44-9.45,10.55-.4-1.23-.85-2.44-1.36-3.64-.98-2.32-2.15-4.54-3.49-6.64.98-1.25,2.04-2.45,3.17-3.58,3.57-3.57,7.73-6.38,12.36-8.34,4.8-2.03,9.89-3.06,15.14-3.06s10.34,1.03,15.14,3.06c4.63,1.96,8.79,4.76,12.36,8.34,3.57,3.57,6.38,7.73,8.33,12.36,2.03,4.8,3.06,9.89,3.06,15.14Z"/>
  </g>
  <g>
    <path class="cls-1" d="M142.98,69.68c-.77,6.67-6.06,12.16-12.71,13.16-2.52.38-4.94.14-7.13-.6-1.51-.51-2.92-1.25-4.19-2.17-.32-.24-.66-.44-1.01-.61-1.93-.95-4.25-.89-6.22.13l-2.47,1.29-1.11.58c-.24.13-.49.27-.71.42,0,0-.95.67-1.65,1.65-1.24,1.71-1.33,4-1.34,4.34,0,.36-.01.71-.03,1.05-.16,2.4,1.01,4.69,2.94,6.12l.4.23c2.24,1.29,5.02,1.26,7.19-.14,2.79-1.82,6.22-2.74,9.88-2.36,6.89.72,12.52,6.22,13.38,13.1,1.25,9.98-7.2,18.34-17.18,16.95-6.74-.94-12.12-6.45-12.87-13.2-.09-.81-.13-1.61-.09-2.39.09-2.4-.95-4.69-2.86-6.08l-.84-.49c-2.24-1.29-4.99-1.18-7.21.16-.12.07-.23.14-.35.21-2.31,1.32-3.76,3.73-3.65,6.38l.15,4.15c.1,2.68,1.77,4.99,4.2,6.13,5.17,2.42,8.74,7.65,8.74,13.72,0,8.93-7.72,16.05-16.86,15.05-6.93-.76-12.54-6.37-13.32-13.3-.72-6.29,2.43-11.91,7.36-14.81,2.25-1.33,3.66-3.72,3.57-6.34l-.16-4.34c-.1-2.58-1.56-4.98-3.9-6.07-5.84-2.71-9.65-9.02-8.6-16.07.95-6.37,6.02-11.54,12.38-12.6,4.23-.69,8.23.37,11.34,2.59,1.17.82,2.56,1.21,3.94,1.18.62-.02,1.57-.19,2.28-.43.1-.05.47-.17.91-.35.16-.07.46-.19.79-.32.75-.31.98-.44,1.47-.65.35-.15.86-.36,1.51-.57h.03s.01-.01.01-.02c2.31-1.19,3.83-3.56,3.78-6.16,0-.08,0-.17.01-.27,0-.21,0-.43.01-.65-.01-.06,0-.1,0-.16.02-.22.03-.44.06-.67.03-.47.1-.96.21-1.43.08-.44.19-.87.31-1.29.07-.24.15-.49.23-.72,1.86-5.41,6.74-9.57,12.67-10.2,9.72-1.02,17.82,7.14,16.68,16.87Z"/>
    <path class="cls-1" d="M113.96,16.32c-6.21-2.56-13.57-.6-17.67,4.73-1.56,2.02-2.51,4.25-2.93,6.53-.29,1.57-.33,3.16-.13,4.71.06.4.06.79.05,1.18-.11,2.15-1.28,4.15-3.13,5.38l-2.33,1.54-1.04.69c-.23.15-.47.3-.71.41,0,0-1.05.5-2.25.64-2.1.25-4.14-.78-4.44-.93-.31-.17-.62-.33-.94-.48-2.18-1.02-3.62-3.16-3.93-5.53v-.47c-.05-2.59,1.32-5,3.6-6.22,2.94-1.56,5.41-4.11,6.86-7.5,2.71-6.37.63-13.97-4.97-18.05-8.12-5.93-19.53-2.59-23.15,6.81-2.45,6.35-.23,13.72,5.31,17.66.66.47,1.34.89,2.05,1.24,2.15,1.09,3.65,3.1,3.93,5.45l.02.97c.05,2.59-1.39,4.94-3.64,6.23-.12.07-.23.13-.35.2-2.27,1.38-5.09,1.48-7.35.1l-3.56-2.14c-2.3-1.39-3.51-3.97-3.32-6.64.39-5.69-2.46-11.35-7.76-14.3-7.81-4.33-17.78-1.03-21.34,7.44-2.69,6.43-.51,14.06,5.17,18.09,5.15,3.68,11.59,3.65,16.52.74,2.26-1.33,5.03-1.4,7.27-.05l3.71,2.24c2.2,1.34,3.6,3.78,3.42,6.35-.46,6.42,3.21,12.82,9.88,15.31,6.03,2.26,13.01.33,17.02-4.72,2.66-3.36,3.67-7.38,3.23-11.17-.15-1.42.18-2.82.88-4.02.32-.53.92-1.29,1.48-1.78.09-.07.38-.33.75-.63.14-.11.39-.31.66-.53.64-.51.86-.65,1.28-.97.3-.23.73-.57,1.23-1.05l.03-.02s0-.01.02,0c2.16-1.44,4.97-1.62,7.22-.32.07.04.15.08.24.12.18.1.37.21.57.3.04.04.09.05.14.08.2.09.4.18.61.27.43.2.89.37,1.35.51.42.14.85.26,1.28.35.25.06.5.1.74.15,5.63,1,11.64-1.25,15.06-6.14,5.6-8.01,2.39-19.05-6.66-22.77Z"/>
    <path class="cls-1" d="M.11,69.68c.77,6.67,6.06,12.16,12.71,13.16,2.52.38,4.94.14,7.13-.6,1.51-.51,2.92-1.25,4.19-2.17.32-.24.66-.44,1.01-.61,1.93-.95,4.25-.89,6.22.13l2.47,1.29,1.11.58c.24.13.49.27.71.42,0,0,.95.67,1.65,1.65,1.24,1.71,1.33,4,1.34,4.34,0,.36.01.71.03,1.05.16,2.4-1.01,4.69-2.94,6.12l-.4.23c-2.24,1.29-5.02,1.26-7.19-.14-2.79-1.82-6.22-2.74-9.88-2.36-6.89.72-12.52,6.22-13.38,13.1-1.25,9.98,7.2,18.34,17.18,16.95,6.74-.94,12.12-6.45,12.87-13.2.09-.81.13-1.61.09-2.39-.09-2.4.95-4.69,2.86-6.08l.84-.49c2.24-1.29,4.99-1.18,7.21.16.12.07.23.14.35.21,2.31,1.32,3.76,3.73,3.65,6.38l-.15,4.15c-.1,2.68-1.77,4.99-4.2,6.13-5.17,2.42-8.74,7.65-8.74,13.72,0,8.93,7.72,16.05,16.86,15.05,6.93-.76,12.54-6.37,13.32-13.3.72-6.29-2.43-11.91-7.36-14.81-2.25-1.33-3.66-3.72-3.57-6.34l.16-4.34c.1-2.58,1.56-4.98,3.9-6.07,5.84-2.71,9.65-9.02,8.6-16.07-.95-6.37-6.02-11.54-12.38-12.6-4.23-.69-8.23.37-11.34,2.59-1.17.82-2.56,1.21-3.94,1.18-.62-.02-1.57-.19-2.28-.43-.1-.05-.47-.17-.91-.35-.16-.07-.46-.19-.79-.32-.75-.31-.98-.44-1.47-.65-.35-.15-.86-.36-1.51-.57h-.03s-.01-.01-.01-.02c-2.31-1.19-3.83-3.56-3.78-6.16,0-.08,0-.17-.01-.27,0-.21,0-.43-.01-.65.01-.06,0-.1,0-.16-.02-.22-.03-.44-.06-.67-.03-.47-.1-.96-.21-1.43-.08-.44-.19-.87-.31-1.29-.07-.24-.15-.49-.23-.72-1.86-5.41-6.74-9.57-12.67-10.2C7.07,51.8-1.03,59.96.11,69.68Z"/>
  </g>
</svg>