<?xml version="1.0" encoding="UTF-8"?>
<svg id="Capa_1" data-name="Capa 1" xmlns="http://www.w3.org/2000/svg" viewBox="0 0 254.02 260.25">
  <defs>
    <style>
      .cls-1 {
        fill: #1e1e1c;
      }
    </style>
  </defs>
  <path class="cls-1" d="M253.88,123.75c-1.37,11.84-10.76,21.59-22.57,23.37-4.47.67-8.77.25-12.66-1.07-2.68-.91-5.18-2.22-7.44-3.85-.57-.43-1.17-.78-1.79-1.08-3.43-1.69-7.55-1.58-11.04.23l-4.39,2.29-1.97,1.03c-.43.23-.87.48-1.26.75,0,0-1.69,1.19-2.93,2.93-2.2,3.04-2.36,7.1-2.38,7.71,0,.64-.02,1.26-.05,1.86-.28,4.26,1.79,8.33,5.22,10.87l.71.41c3.98,2.29,8.91,2.24,12.77-.25,4.95-3.23,11.04-4.87,17.54-4.19,12.23,1.28,22.23,11.04,23.76,23.26,2.22,17.72-12.78,32.57-30.51,30.1-11.97-1.67-21.52-11.45-22.85-23.44-.16-1.44-.23-2.86-.16-4.24.16-4.26-1.69-8.33-5.08-10.8l-1.49-.87c-3.98-2.29-8.86-2.1-12.8.28-.21.12-.41.25-.62.37-4.1,2.34-6.68,6.62-6.48,11.33l.27,7.37c.18,4.76,3.14,8.86,7.46,10.88,9.18,4.3,15.52,13.58,15.52,24.36,0,15.86-13.71,28.5-29.94,26.72-12.31-1.35-22.27-11.31-23.65-23.62-1.28-11.17,4.31-21.15,13.07-26.3,4-2.36,6.5-6.61,6.34-11.26l-.28-7.71c-.18-4.58-2.77-8.84-6.93-10.78-10.37-4.81-17.14-16.02-15.27-28.54,1.69-11.31,10.69-20.49,21.98-22.37,7.51-1.23,14.61.66,20.14,4.6,2.08,1.46,4.55,2.15,7,2.1,1.1-.04,2.79-.34,4.05-.76.18-.09.83-.3,1.62-.62.28-.12.82-.34,1.4-.57,1.33-.55,1.74-.78,2.61-1.15.62-.27,1.53-.64,2.68-1.01h.05s.02-.02.02-.04c4.1-2.11,6.8-6.32,6.71-10.94,0-.14,0-.3.02-.48,0-.37,0-.76.02-1.15-.02-.11,0-.18,0-.28.04-.39.05-.78.11-1.19.05-.83.18-1.7.37-2.54.14-.78.34-1.54.55-2.29.12-.43.27-.87.41-1.28,3.3-9.61,11.97-16.99,22.5-18.11,17.26-1.81,31.64,12.68,29.62,29.96h.05Z"/>
  <path class="cls-1" d="M202.35,29c-11.03-4.55-24.1-1.07-31.38,8.4-2.77,3.59-4.46,7.55-5.2,11.6-.51,2.79-.59,5.61-.23,8.36.11.71.11,1.4.09,2.1-.2,3.82-2.27,7.37-5.56,9.55l-4.14,2.73-1.85,1.23c-.41.27-.83.53-1.26.73,0,0-1.86.89-4,1.14-3.73.44-7.35-1.39-7.88-1.65-.55-.3-1.1-.59-1.67-.85-3.87-1.81-6.43-5.61-6.98-9.82v-.83c-.09-4.6,2.34-8.88,6.39-11.04,5.22-2.77,9.61-7.3,12.18-13.32,4.81-11.31,1.12-24.81-8.83-32.05-14.42-10.53-34.68-4.6-41.11,12.09-4.35,11.28-.41,24.36,9.43,31.36,1.17.83,2.38,1.58,3.64,2.2,3.82,1.94,6.48,5.5,6.98,9.68l.04,1.72c.09,4.6-2.47,8.77-6.46,11.06-.21.12-.41.23-.62.36-4.03,2.45-9.04,2.63-13.05.18l-6.32-3.8c-4.08-2.47-6.23-7.05-5.9-11.79.69-10.1-4.37-20.15-13.78-25.39-13.87-7.69-31.57-1.83-37.89,13.21-4.78,11.42-.91,24.97,9.18,32.12,9.14,6.53,20.58,6.48,29.33,1.31,4.01-2.36,8.93-2.49,12.91-.09l6.59,3.98c3.91,2.38,6.39,6.71,6.07,11.28-.82,11.4,5.7,22.76,17.54,27.19,10.71,4.01,23.1.59,30.22-8.38,4.72-5.97,6.52-13.1,5.74-19.83-.27-2.52.32-5.01,1.56-7.14.57-.94,1.63-2.29,2.63-3.16.16-.12.67-.59,1.33-1.12.25-.2.69-.55,1.17-.94,1.14-.91,1.53-1.15,2.27-1.72.53-.41,1.3-1.01,2.18-1.86l.05-.04s0-.02.04,0c3.84-2.56,8.83-2.88,12.82-.57.12.07.27.14.43.21.32.18.66.37,1.01.53.07.07.16.09.25.14.36.16.71.32,1.08.48.76.36,1.58.66,2.4.91.75.25,1.51.46,2.27.62.44.11.89.18,1.31.27,10,1.78,20.67-2.22,26.74-10.9,9.94-14.22,4.24-33.83-11.83-40.43l.04.02Z"/>
  <path class="cls-1" d="M.19,123.75c1.37,11.84,10.76,21.59,22.57,23.37,4.47.67,8.77.25,12.66-1.07,2.68-.91,5.18-2.22,7.44-3.85.57-.43,1.17-.78,1.79-1.08,3.43-1.69,7.55-1.58,11.04.23l4.39,2.29,1.97,1.03c.43.23.87.48,1.26.75,0,0,1.69,1.19,2.93,2.93,2.2,3.04,2.36,7.1,2.38,7.71,0,.64.02,1.26.05,1.86.28,4.26-1.79,8.33-5.22,10.87l-.71.41c-3.98,2.29-8.91,2.24-12.77-.25-4.95-3.23-11.04-4.87-17.54-4.19-12.23,1.28-22.23,11.04-23.76,23.26-2.22,17.72,12.78,32.57,30.51,30.1,11.97-1.67,21.52-11.45,22.85-23.44.16-1.44.23-2.86.16-4.24-.16-4.26,1.69-8.33,5.08-10.8l1.49-.87c3.98-2.29,8.86-2.1,12.8.28.21.12.41.25.62.37,4.1,2.34,6.68,6.62,6.48,11.33l-.27,7.37c-.18,4.76-3.14,8.86-7.46,10.88-9.18,4.3-15.52,13.58-15.52,24.36,0,15.86,13.71,28.5,29.94,26.72,12.31-1.35,22.27-11.31,23.65-23.62,1.28-11.17-4.31-21.15-13.07-26.3-4-2.36-6.5-6.61-6.34-11.26l.28-7.71c.18-4.58,2.77-8.84,6.93-10.78,10.37-4.81,17.14-16.02,15.27-28.54-1.69-11.31-10.69-20.49-21.98-22.37-7.51-1.23-14.61.66-20.14,4.6-2.08,1.46-4.55,2.15-7,2.1-1.1-.04-2.79-.34-4.05-.76-.18-.09-.83-.3-1.62-.62-.28-.12-.82-.34-1.4-.57-1.33-.55-1.74-.78-2.61-1.15-.62-.27-1.53-.64-2.68-1.01h-.05s-.02-.02-.02-.04c-4.1-2.11-6.8-6.32-6.71-10.94,0-.14,0-.3-.02-.48,0-.37,0-.76-.02-1.15.02-.11,0-.18,0-.28-.04-.39-.05-.78-.11-1.19-.05-.83-.18-1.7-.37-2.54-.14-.78-.34-1.54-.55-2.29-.12-.43-.27-.87-.41-1.28-3.3-9.61-11.97-16.99-22.5-18.11C12.55,92-1.83,106.49.19,123.75Z"/>
</svg>